<svg width="23" height="23" viewBox="0 0 23 23" fill="none" xmlns="http://www.w3.org/2000/svg">
<path d="M6.24993 11.25H11.2499M11.2499 11.25H16.2498M11.2499 11.25V16.25M11.2499 11.25V6.25M1.25 17.2502V5.25024C1.25 3.85011 1.25 3.14953 1.52248 2.61475C1.76216 2.14434 2.14433 1.76217 2.61473 1.52248C3.1495 1.25 3.85008 1.25 5.25019 1.25H17.25C18.6501 1.25 19.3498 1.25 19.8846 1.52248C20.355 1.76217 20.7378 2.14434 20.9775 2.61475C21.25 3.14953 21.25 3.84959 21.25 5.24972V17.2498C21.25 18.6499 21.25 19.35 20.9775 19.8847C20.7378 20.3551 20.355 20.7381 19.8846 20.9778C19.3504 21.25 18.6516 21.25 17.2543 21.25H5.24608C3.84871 21.25 3.14898 21.25 2.61473 20.9778C2.14433 20.7381 1.76216 20.3553 1.52248 19.8849C1.25 19.3501 1.25 18.6504 1.25 17.2502Z" stroke="black" stroke-width="2.5" stroke-linecap="round" stroke-linejoin="round"/>
</svg>
