<svg width="22" height="22" viewBox="0 0 22 22" fill="none" xmlns="http://www.w3.org/2000/svg">
<path d="M22 17.9611V10.4927C22 9.77338 21.9994 9.41352 21.91 9.07881C21.8309 8.78219 21.7009 8.5015 21.525 8.24784C21.3266 7.96161 21.0506 7.72425 20.4977 7.25058L13.8977 1.5967C12.8711 0.717271 12.3578 0.277779 11.7802 0.110529C11.2711 -0.036843 10.7286 -0.036843 10.2196 0.110529C9.64234 0.277653 9.12979 0.716728 8.10475 1.59483L1.50256 7.25058C0.949631 7.72425 0.673807 7.96161 0.475342 8.24784C0.299464 8.5015 0.168504 8.78219 0.0893356 9.07881C0 9.41353 0 9.77337 0 10.4927V17.9611C0 19.2156 0 19.8426 0.209331 20.3373C0.48844 20.997 1.02344 21.5218 1.69727 21.7951C2.20264 22 2.84331 22 4.12465 22C5.40598 22 6.04736 22 6.55273 21.7951C7.22656 21.5218 7.76142 20.9972 8.04053 20.3375C8.24986 19.8427 8.25 19.2155 8.25 17.961V16.6148C8.25 15.1279 9.48122 13.9225 11 13.9225C12.5188 13.9225 13.75 15.1279 13.75 16.6148V17.961C13.75 19.2155 13.75 19.8427 13.9593 20.3375C14.2384 20.9972 14.7734 21.5218 15.4473 21.7951C15.9526 22 16.5933 22 17.8746 22C19.156 22 19.7974 22 20.3027 21.7951C20.9766 21.5218 21.5114 20.997 21.7905 20.3373C21.9999 19.8426 22 19.2156 22 17.9611Z" fill="url(#paint0_linear_1481_549)"/>
<defs>
<linearGradient id="paint0_linear_1481_549" x1="-8.90403" y1="-15.0434" x2="24.6392" y2="-13.0686" gradientUnits="userSpaceOnUse">
<stop stop-color="#4395E2"/>
<stop offset="0.510417" stop-color="#43AFB6"/>
<stop offset="1" stop-color="#CABEA1"/>
</linearGradient>
</defs>
</svg>
