<svg width="25" height="25" viewBox="0 0 25 25" fill="none" xmlns="http://www.w3.org/2000/svg">
<path d="M23.2501 19.2111V11.7427C23.2501 11.0234 23.2495 10.6635 23.1602 10.3288C23.081 10.0322 22.951 9.75149 22.7752 9.49784C22.5767 9.21161 22.3008 8.97425 21.7478 8.50058L15.1478 2.8467C14.1212 1.96727 13.6079 1.52778 13.0303 1.36053C12.5213 1.21316 11.9787 1.21316 11.4697 1.36053C10.8925 1.52765 10.3799 1.96673 9.35487 2.84483L2.75269 8.50058C2.19975 8.97425 1.92393 9.21161 1.72546 9.49784C1.54959 9.7515 1.41863 10.0322 1.33946 10.3288C1.25012 10.6635 1.25012 11.0234 1.25012 11.7427V19.2111C1.25012 20.4656 1.25012 21.0926 1.45945 21.5873C1.73856 22.247 2.27356 22.7718 2.94739 23.0451C3.45276 23.25 4.09343 23.25 5.37477 23.25C6.65611 23.25 7.29749 23.25 7.80286 23.0451C8.47668 22.7718 9.01154 22.2472 9.29065 21.5875C9.49998 21.0927 9.50012 20.4655 9.50012 19.211V17.8648C9.50012 16.3779 10.7313 15.1725 12.2501 15.1725C13.7689 15.1725 15.0001 16.3779 15.0001 17.8648V19.211C15.0001 20.4655 15.0001 21.0927 15.2095 21.5875C15.4886 22.2472 16.0236 22.7718 16.6974 23.0451C17.2028 23.25 17.8434 23.25 19.1248 23.25C20.4061 23.25 21.0475 23.25 21.5529 23.0451C22.2267 22.7718 22.7615 22.247 23.0406 21.5873C23.25 21.0926 23.2501 20.4656 23.2501 19.2111Z" stroke="black" stroke-width="2.5" stroke-linecap="round" stroke-linejoin="round"/>
</svg>
