<svg width="25" height="25" viewBox="0 0 25 25" fill="none" xmlns="http://www.w3.org/2000/svg">
<path d="M6.76194 21.7855C8.37709 22.7171 10.2511 23.25 12.2496 23.25C18.3247 23.25 23.25 18.3252 23.25 12.25C23.25 6.17488 18.3251 1.25 12.25 1.25C6.17487 1.25 1.25 6.17488 1.25 12.25C1.25 14.2485 1.78294 16.1225 2.71446 17.7377L2.71807 17.7439C2.8077 17.8993 2.85289 17.9777 2.87337 18.0518C2.89267 18.1216 2.89807 18.1844 2.89312 18.2567C2.88781 18.3344 2.86163 18.415 2.80794 18.576L1.86827 21.395L1.86709 21.3987C1.66883 21.9935 1.5697 22.2909 1.64036 22.4891C1.70197 22.6618 1.83873 22.7982 2.0115 22.8598C2.20922 22.9303 2.50528 22.8316 3.09745 22.6342L3.10482 22.6315L5.92383 21.6918C6.08435 21.6383 6.16594 21.6112 6.2435 21.6059C6.31581 21.601 6.37817 21.6075 6.44803 21.6268C6.52228 21.6473 6.60069 21.6925 6.75689 21.7826L6.76194 21.7855Z" stroke="black" stroke-width="2.5" stroke-linecap="round" stroke-linejoin="round"/>
<path d="M6.76194 21.7855C8.37709 22.7171 10.2511 23.25 12.2496 23.25C18.3247 23.25 23.25 18.3252 23.25 12.25C23.25 6.17488 18.3251 1.25 12.25 1.25C6.17487 1.25 1.25 6.17488 1.25 12.25C1.25 14.2485 1.78294 16.1225 2.71446 17.7377L2.71807 17.7439C2.8077 17.8993 2.85289 17.9777 2.87337 18.0518C2.89267 18.1216 2.89807 18.1844 2.89312 18.2567C2.88781 18.3344 2.86163 18.415 2.80794 18.576L1.86827 21.395L1.86709 21.3987C1.66883 21.9935 1.5697 22.2909 1.64036 22.4891C1.70197 22.6618 1.83873 22.7982 2.0115 22.8598C2.20922 22.9303 2.50528 22.8316 3.09745 22.6342L3.10482 22.6315L5.92383 21.6918C6.08435 21.6383 6.16594 21.6112 6.2435 21.6059C6.31581 21.601 6.37817 21.6075 6.44803 21.6268C6.52228 21.6473 6.60069 21.6925 6.75689 21.7826L6.76194 21.7855Z" stroke="url(#paint0_linear_1262_494)" stroke-width="2.5" stroke-linecap="round" stroke-linejoin="round"/>
<defs>
<linearGradient id="paint0_linear_1262_494" x1="-7.65403" y1="-13.7934" x2="25.8892" y2="-11.8186" gradientUnits="userSpaceOnUse">
<stop stop-color="#4395E2"/>
<stop offset="0.510417" stop-color="#43AFB6"/>
<stop offset="1" stop-color="#CABEA1"/>
</linearGradient>
</defs>
</svg>
