<svg width="25" height="28" viewBox="0 0 25 28" fill="none" xmlns="http://www.w3.org/2000/svg">
<path d="M15.4853 20.9868V22.3026C15.4853 24.4827 13.7471 26.25 11.6029 26.25C9.45878 26.25 7.72059 24.4827 7.72059 22.3026V20.987M15.4853 20.9868L7.72059 20.987M15.4853 20.9868H20.6618C21.3765 20.9868 21.9559 20.3978 21.9559 19.6711V18.9001C21.9559 18.5511 21.8194 18.2166 21.5767 17.9698L20.9158 17.2977C20.7531 17.1324 20.6618 16.9079 20.6618 16.6739V11.7763C20.6618 11.5442 20.6535 11.3139 20.6365 11.087M7.72059 20.987L2.54412 20.987C1.8294 20.987 1.25 20.3975 1.25 19.6708V18.9001C1.25 18.5511 1.38645 18.217 1.62914 17.9701L2.2901 17.2972C2.45274 17.1318 2.54412 16.9082 2.54412 16.6742V11.7763C2.54412 6.68949 6.59988 2.56579 11.6029 2.56579C12.5238 2.56579 13.4126 2.7055 14.25 2.96522M20.6365 11.087C22.1977 10.1807 23.25 8.47186 23.25 6.51316C23.25 3.6064 20.9324 1.25 18.0735 1.25C16.5591 1.25 15.1966 1.91123 14.25 2.96522M20.6365 11.087C19.8808 11.5256 19.006 11.7763 18.0735 11.7763C15.2146 11.7763 12.8971 9.41992 12.8971 6.51316C12.8971 5.14618 13.4096 3.90093 14.25 2.96522M20.6365 11.087C20.6365 11.087 20.6365 11.087 20.6365 11.087ZM14.25 2.96522C14.2506 2.96541 14.2512 2.9656 14.2518 2.96578" stroke="black" stroke-width="2.5" stroke-linecap="round" stroke-linejoin="round"/>
</svg>
