<svg width="22" height="22" viewBox="0 0 22 22" fill="none" xmlns="http://www.w3.org/2000/svg">
<path d="M6.39453 1.25H15.6172C17.3717 1.25008 18.6218 1.76777 19.4307 2.57715C20.2392 3.38632 20.7548 4.63525 20.75 6.3877V15.6094C20.7499 17.3623 20.2322 18.6118 19.4219 19.4219C18.6113 20.232 17.3601 20.75 15.6055 20.75H6.39453C4.63997 20.75 3.38952 20.2319 2.5791 19.4209C1.76862 18.6098 1.25 17.3572 1.25 15.5977V6.39062C1.25007 4.63773 1.7678 3.38817 2.57812 2.57812C3.3887 1.76795 4.63995 1.25 6.39453 1.25ZM11.5234 6.26855C10.4371 5.70787 9.20986 5.55481 8.16113 6.15723C7.04016 6.80123 6.56348 8.05459 6.56348 9.37207V12.6279C6.56348 13.9424 7.04143 15.1932 8.15918 15.8379C9.27624 16.4821 10.599 16.2705 11.7393 15.6143L11.7412 15.6133L13.1494 14.7988L14.5576 13.9844C15.6972 13.328 16.5449 12.2908 16.5449 11C16.5449 9.78913 15.7996 8.80023 14.7666 8.14062L14.5566 8.01367L13.1494 7.20117L11.7412 6.38672L11.7393 6.38574L11.5234 6.26855Z" stroke="black" stroke-width="2.5"/>
</svg>
