<svg width="22" height="22" viewBox="0 0 22 22" fill="none" xmlns="http://www.w3.org/2000/svg">
<path d="M15.6168 0H6.39419C2.38819 0 0 2.387 0 6.391V15.598C0 19.613 2.38819 22 6.39419 22H15.6058C19.6118 22 22 19.613 22 15.609V6.391C22.011 2.387 19.6228 0 15.6168 0ZM13.9329 12.903L12.5242 13.717L11.1155 14.531C9.29963 15.576 7.81389 14.718 7.81389 12.628V9.372C7.81389 7.271 9.29963 6.424 11.1155 7.469L12.5242 8.283L13.9329 9.097C15.7488 10.142 15.7488 11.858 13.9329 12.903Z" fill="#D9D9D9"/>
<path d="M15.6168 0H6.39419C2.38819 0 0 2.387 0 6.391V15.598C0 19.613 2.38819 22 6.39419 22H15.6058C19.6118 22 22 19.613 22 15.609V6.391C22.011 2.387 19.6228 0 15.6168 0ZM13.9329 12.903L12.5242 13.717L11.1155 14.531C9.29963 15.576 7.81389 14.718 7.81389 12.628V9.372C7.81389 7.271 9.29963 6.424 11.1155 7.469L12.5242 8.283L13.9329 9.097C15.7488 10.142 15.7488 11.858 13.9329 12.903Z" fill="url(#paint0_linear_1481_566)"/>
<defs>
<linearGradient id="paint0_linear_1481_566" x1="-8.90403" y1="-15.0434" x2="24.6392" y2="-13.0686" gradientUnits="userSpaceOnUse">
<stop stop-color="#4395E2"/>
<stop offset="0.510417" stop-color="#43AFB6"/>
<stop offset="1" stop-color="#CABEA1"/>
</linearGradient>
</defs>
</svg>
